# xmcd
#
# Track frame offsets: 
#        182
#        16505
#        32280
#        45912
#        59967
#        73395
#        90462
#        109982
#        123192
#        130647
#        139630
#        156472
#        160595
#        171805
#        182372
#        195445
#
# Disc length: 2914 seconds
#
# Revision: 7
# Processed by: cddbd v1.5.2PL0 Copyright (c) Steve Scherf et al.
# Submitted via: ExactAudioCopy v1.1
#
DISCID=c70b6010
DTITLE=Bud Powell - The Complete Bud Powell on Verve - Disc 2
DYEAR=1994
DGENRE=Jazz
TTITLE0=Moonlight In Vermont (mono)
TTITLE1=Spring Is Here (mono)
TTITLE2=Buttercup (mono)
TTITLE3=Fantasy In Blue (mono)
TTITLE4=It Never Entered My Mind (mono)
TTITLE5=A Foggy Day (mono)
TTITLE6=Time Was (mono)
TTITLE7=My Funny Valentine (mono)
TTITLE8=Like Someone In Love (alt - take 2 - incomplete) (mono)
TTITLE9=Like Someone In Love (master - take 3) (mono)
TTITLE10=Deep Night (mono)
TTITLE11=That Old Black Magic (alt - take 2 - incomplete) (mono)
TTITLE12=That Old Black Magic (alt - take 3) (mono)
TTITLE13=That Old Black Magic (master - take 4) (mono)
TTITLE14=That Old Black Magic (alt - take 5) (mono)
TTITLE15='Round Midnight (mono)
EXTD=
EXTT0=
EXTT1=
EXTT2=
EXTT3=
EXTT4=
EXTT5=
EXTT6=
EXTT7=
EXTT8=
EXTT9=
EXTT10=
EXTT11=
EXTT12=
EXTT13=
EXTT14=
EXTT15=
PLAYORDER=
